<svg xmlns="http://www.w3.org/2000/svg" width="36" height="32" viewBox="0 0 36 32">
  <defs>
    <style>
      .cls-1 {
        fill: #fff;
        fill-rule: evenodd;
      }
    </style>
  </defs>
  <path id="Box" class="cls-1" d="M1153,1697a2,2,0,0,0-2-2h-16a2,2,0,0,0-2,2l-8,14v14a2.006,2.006,0,0,0,2,2h32a2.006,2.006,0,0,0,2-2v-14Zm-16.54,2h13.08l5.71,10H1148a1,1,0,0,0-1,1v0.82a4.117,4.117,0,0,1-3.6,4.16,4.007,4.007,0,0,1-4.4-3.98v-1a1,1,0,0,0-1-1h-7.25Zm19.54,24h-26a1,1,0,0,1-1-1v-9h6.26a7.992,7.992,0,0,0,15.48,0H1157v9A1,1,0,0,1,1156,1723Z" transform="translate(-1125 -1695)"/>
</svg>
