<svg width="30" height="30" viewBox="0 0 30 30" fill="none" xmlns="http://www.w3.org/2000/svg">
<path d="M14.9966 3.35938C8.57984 3.35938 3.35938 8.57984 3.35938 14.9966C3.35938 21.4133 8.57984 26.6337 14.9966 26.6337C21.4133 26.6337 26.6337 21.4133 26.6337 14.9966C26.6337 8.57984 21.4133 3.35938 14.9966 3.35938ZM17.8906 15.4062H15.9973C15.9973 18.4311 15.9973 22.1553 15.9973 22.1553H13.1919C13.1919 22.1553 13.1919 18.4672 13.1919 15.4062H11.8583V13.0212H13.1919V11.4786C13.1919 10.3737 13.7169 8.64734 16.0231 8.64734L18.1011 8.65531V10.9705C18.1011 10.9705 16.8378 10.9705 16.5922 10.9705C16.3466 10.9705 15.9978 11.0933 15.9978 11.6202V13.0217H18.1353L17.8906 15.4062Z" fill="white"/>
</svg>
