<svg width="30" height="30" viewBox="0 0 30 30" fill="none" xmlns="http://www.w3.org/2000/svg">
<path fill-rule="evenodd" clip-rule="evenodd" d="M15 2.72656C8.20418 2.72656 2.69531 8.22172 2.69531 14.9999C2.69531 21.7786 8.20418 27.2737 15 27.2737C21.7954 27.2737 27.3047 21.7786 27.3047 14.9999C27.3047 8.22172 21.7954 2.72656 15 2.72656ZM15.1437 22.1786C11.1776 22.1786 7.96523 18.9662 7.96523 15.0001C7.96523 11.034 11.1776 7.82164 15.1437 7.82164C17.082 7.82164 18.7014 8.53496 19.9444 9.69254L17.9206 11.716V11.7114C17.167 10.9936 16.2115 10.6258 15.1437 10.6258C12.7749 10.6258 10.8502 12.6267 10.8502 14.9957C10.8502 17.3643 12.775 19.3701 15.1437 19.3701C17.2928 19.3701 18.7553 18.1407 19.0562 16.4538H15.1437V13.6541H21.8958C21.9856 14.1341 22.0346 14.6367 22.0346 15.1616C22.0347 19.2623 19.2894 22.1786 15.1437 22.1786Z" fill="white"/>
</svg>
