<svg width="5000" height="5000" viewBox="0 0 5000 5000" fill="none" xmlns="http://www.w3.org/2000/svg">
<g clip-path="url(#clip0)">
<path d="M419.045 11.9963C419.045 12.3629 419.315 12.6629 419.645 12.6629H420.245V14.9961C420.245 15.5494 420.647 15.9961 421.145 15.9961C421.643 15.9961 422.045 15.5494 422.045 14.9961V12.6629H423.245V14.9961C423.245 15.5494 423.647 15.9961 424.145 15.9961C424.643 15.9961 425.045 15.5494 425.045 14.9961V12.6629H425.645C425.975 12.6629 426.245 12.3629 426.245 11.9963V5.32998H419.045V11.9963ZM417.545 5.32998C417.047 5.32998 416.645 5.77663 416.645 6.32993V10.9964C416.645 11.5497 417.047 11.9963 417.545 11.9963C418.043 11.9963 418.445 11.5497 418.445 10.9964V6.32993C418.445 5.77663 418.043 5.32998 417.545 5.32998ZM427.745 5.32998C427.247 5.32998 426.845 5.77663 426.845 6.32993V10.9964C426.845 11.5497 427.247 11.9963 427.745 11.9963C428.243 11.9963 428.645 11.5497 428.645 10.9964V6.32993C428.645 5.77663 428.243 5.32998 427.745 5.32998ZM424.763 1.43685L425.546 0.566897C425.663 0.436904 425.663 0.226915 425.546 0.0969218C425.429 -0.0330714 425.24 -0.0330714 425.123 0.0969218L424.235 1.0802C423.755 0.816884 423.218 0.663559 422.645 0.663559C422.069 0.663559 421.529 0.816884 421.046 1.08354L420.155 0.0935887C420.038 -0.0364046 419.849 -0.0364046 419.732 0.0935887C419.615 0.223582 419.615 0.433571 419.732 0.563564L420.518 1.43685C419.627 2.16681 419.045 3.34009 419.045 4.66335H426.245C426.245 3.33675 425.66 2.16348 424.763 1.43685V1.43685ZM421.445 3.33009H420.845V2.66345H421.445V3.33009ZM424.445 3.33009H423.845V2.66345H424.445V3.33009Z" fill="#525252"/>
</g>
<defs>
<clipPath id="clip0">
<rect width="5000" height="5000" fill="white"/>
</clipPath>
</defs>
</svg>
