<svg width="5000" height="5000" viewBox="0 0 5000 5000" fill="none" xmlns="http://www.w3.org/2000/svg">
<path d="M565.023 142.501C565.004 140.474 566.545 139.502 566.614 139.453C565.748 138.078 564.399 137.89 563.919 137.868C562.772 137.742 561.679 138.602 561.097 138.602C560.516 138.602 559.617 137.887 558.666 137.905C557.414 137.925 556.261 138.695 555.617 139.911C554.317 142.359 555.284 145.987 556.551 147.974C557.17 148.945 557.908 150.038 558.877 149.998C559.811 149.958 560.163 149.342 561.292 149.342C562.42 149.342 562.737 149.998 563.725 149.977C564.729 149.957 565.365 148.987 565.979 148.012C566.69 146.884 566.983 145.792 567 145.737C566.978 145.726 565.043 144.921 565.023 142.501Z" fill="#525252"/>
<path d="M563.165 136.555C563.679 135.877 564.027 134.937 563.932 134C563.191 134.033 562.294 134.535 561.761 135.211C561.284 135.812 560.868 136.768 560.979 137.687C561.806 137.757 562.65 137.23 563.165 136.555Z" fill="#525252"/>
</svg>
