<svg xmlns="http://www.w3.org/2000/svg" width="32" height="32" viewBox="0 0 32 32">
  <defs>
    <style>
      .cls-1 {
        fill: #fff;
        fill-rule: evenodd;
      }
    </style>
  </defs>
  <path id="Stalking_You" data-name="Stalking You" class="cls-1" d="M374.2,1707h-0.279A8,8,0,1,0,359,1703a7.99,7.99,0,0,0-6.921,12H351.8a7.84,7.84,0,0,0-4.8,6.93V1725a2.589,2.589,0,0,0,1.937,2H369.25a2.372,2.372,0,0,0,1.75-2v-3.07a6.914,6.914,0,0,0-.68-2.93h6.93a2.372,2.372,0,0,0,1.75-2v-3.07A7.84,7.84,0,0,0,374.2,1707Zm-7.2-8a4,4,0,0,1,0,8,3.715,3.715,0,0,1-1.2-.21,8.113,8.113,0,0,0-2.591-2.59,3.944,3.944,0,0,1-.2-1.2A4,4,0,0,1,367,1699Zm-8,8a4,4,0,1,1-3.932,4.68A3.646,3.646,0,0,1,355,1711,4,4,0,0,1,359,1707Zm8,16H351v-1.07a3.709,3.709,0,0,1,1.8-2.93H365.2a3.709,3.709,0,0,1,1.8,2.93V1723Zm8-8h-9.079a7.958,7.958,0,0,0,1.079-4h6.2a3.709,3.709,0,0,1,1.8,2.93V1715Z" transform="translate(-347 -1695)"/>
</svg>
