<svg xmlns="http://www.w3.org/2000/svg" width="36" height="32" viewBox="0 0 36 32">
  <defs>
    <style>
      .cls-1 {
        fill: #fff;
        fill-rule: evenodd;
      }
    </style>
  </defs>
  <path id="Painting" class="cls-1" d="M747.988,1706.99a4,4,0,1,1-4-4A4,4,0,0,1,747.988,1706.99Zm-7.421,19.42h0a1.978,1.978,0,0,1,0-2.8l16.037-16.04a1.974,1.974,0,0,1,2.8,0h0a1.978,1.978,0,0,1,0,2.8l-16.037,16.04A1.992,1.992,0,0,1,740.567,1726.41Zm24.058-8-8.058-8.06a1.974,1.974,0,0,1,0-2.79h0a1.972,1.972,0,0,1,2.789,0l8.058,8.06a1.974,1.974,0,0,1,0,2.79h0A1.972,1.972,0,0,1,764.625,1718.41Zm1.366-23.43h-32a2.006,2.006,0,0,0-2,2.01v28a2,2,0,0,0,2,2h32a2,2,0,0,0,2-2v-28A2,2,0,0,0,765.991,1694.98Zm-2,27.01a1,1,0,0,1-1,1h-26a1,1,0,0,1-1-1v-22a1,1,0,0,1,1-1h26a1,1,0,0,1,1,1v22Z" transform="translate(-732 -1695)"/>
</svg>
