<svg xmlns="http://www.w3.org/2000/svg" width="36" height="32" viewBox="0 0 36 32">
  <defs>
    <style>
      .cls-1 {
        fill: #fff;
        fill-rule: evenodd;
      }
    </style>
  </defs>
  <path id="Printer" class="cls-1" d="M1149,1993h-12a2.006,2.006,0,0,1-2-2v-2a2.006,2.006,0,0,1,2-2h12a2.006,2.006,0,0,1,2,2v2A2.006,2.006,0,0,1,1149,1993Zm2,22h-16v-6h-4v8a2.006,2.006,0,0,0,2,2h20a2.006,2.006,0,0,0,2-2v-8h-4v6Zm6-24h-30a2.006,2.006,0,0,0-2,2v16a2.006,2.006,0,0,0,2,2h8v-4h16v4h8a2.006,2.006,0,0,0,2-2v-16a2.006,2.006,0,0,0-2-2h-2Zm0,6v9a1,1,0,0,1-1,1h-1v-2a2.006,2.006,0,0,0-2-2h-20a2.006,2.006,0,0,0-2,2v2h-1a1,1,0,0,1-1-1v-10a1,1,0,0,1,1-1h26a1,1,0,0,1,1,1v1Z" transform="translate(-1125 -1987)"/>
</svg>
