<svg xmlns="http://www.w3.org/2000/svg" width="32" height="32" viewBox="0 0 32 32">
  <defs>
    <style>
      .cls-1 {
        fill: #fff;
        fill-rule: evenodd;
      }
    </style>
  </defs>
  <path id="Cogwheel" class="cls-1" d="M764.329,2000.72l-2.65-.44a11.967,11.967,0,0,0-1.524-3.65l1.476-2.07a1.978,1.978,0,0,0-.211-2.55l-0.428-.43a1.991,1.991,0,0,0-2.553-.21l-2.066,1.47a12.216,12.216,0,0,0-3.653-1.52l-0.441-2.65a2,2,0,0,0-1.973-1.67h-0.612a2,2,0,0,0-1.973,1.67l-0.441,2.65a12.216,12.216,0,0,0-3.653,1.52l-2.066-1.47a1.991,1.991,0,0,0-2.553.21l-0.428.43a1.977,1.977,0,0,0-.211,2.55l1.476,2.07a11.967,11.967,0,0,0-1.524,3.65l-2.65.44a2,2,0,0,0-1.671,1.97v0.62a2,2,0,0,0,1.671,1.97l2.65,0.44a11.967,11.967,0,0,0,1.524,3.65l-1.476,2.07a1.977,1.977,0,0,0,.211,2.55l0.428,0.43a1.991,1.991,0,0,0,2.553.21l2.066-1.48a11.983,11.983,0,0,0,3.653,1.53l0.441,2.65a2,2,0,0,0,1.973,1.67h0.612a2,2,0,0,0,1.973-1.67l0.441-2.65a11.983,11.983,0,0,0,3.653-1.53l2.066,1.48a1.991,1.991,0,0,0,2.553-.21l0.428-.43a1.978,1.978,0,0,0,.211-2.55l-1.476-2.07a11.967,11.967,0,0,0,1.524-3.65l2.65-.44a2,2,0,0,0,1.671-1.97v-0.62A2,2,0,0,0,764.329,2000.72ZM750,2009a6,6,0,1,1,6-6A6,6,0,0,1,750,2009Z" transform="translate(-734 -1987)"/>
</svg>
