<svg width="30" height="30" viewBox="0 0 30 30" fill="none" xmlns="http://www.w3.org/2000/svg">
<path d="M14.9995 2.73047C7.8028 2.73047 1.96875 8.56558 1.96875 15.7612C1.96875 22.9578 7.8028 28.7908 14.9995 28.7908C22.1961 28.7908 28.0291 22.9578 28.0291 15.7612C28.0291 8.56558 22.1956 2.73047 14.9995 2.73047ZM21.5632 13.1339C21.5701 13.2746 21.5728 13.4159 21.5728 13.5588C21.5728 17.8985 18.2697 22.9017 12.2298 22.9017C10.3756 22.9017 8.64894 22.3583 7.19585 21.427C7.45303 21.4571 7.7139 21.4725 7.97902 21.4725C9.51783 21.4725 10.9339 20.9475 12.0573 20.067C10.6206 20.04 9.40829 19.0902 8.99025 17.7858C9.19028 17.8249 9.39612 17.8445 9.60779 17.8445C9.9073 17.8445 10.1973 17.8053 10.473 17.7297C8.97014 17.4281 7.83826 16.0998 7.83826 14.5102C7.83826 14.4959 7.83826 14.4822 7.83879 14.4679C8.28117 14.714 8.78758 14.8616 9.32627 14.8791C8.44468 14.289 7.86525 13.2852 7.86525 12.1454C7.86525 11.5437 8.02717 10.9791 8.30974 10.4944C9.92952 12.4809 12.3494 13.7884 15.0788 13.925C15.0227 13.6853 14.9936 13.4339 14.9936 13.1767C14.9936 11.3638 16.4637 9.89326 18.2776 9.89326C19.2222 9.89326 20.0752 10.2922 20.6742 10.9299C21.4225 10.7833 22.1252 10.5092 22.7597 10.133C22.5136 10.9003 21.9934 11.5437 21.3151 11.9496C21.9802 11.8702 22.6131 11.6935 23.2015 11.4326C22.7623 12.0925 22.2051 12.6708 21.5632 13.1339Z" fill="white"/>
</svg>
